<svg width="69" height="67" viewBox="0 0 69 67" fill="none" xmlns="http://www.w3.org/2000/svg">
<path d="M67 33.5C67 50.8419 52.5051 65 34.5 65C16.4949 65 2 50.8419 2 33.5C2 16.1581 16.4949 2 34.5 2C52.5051 2 67 16.1581 67 33.5Z" fill="#D61CFF" stroke="#8AE3A6" stroke-width="4"/>
<path d="M27.2386 20.9091V50H23.7159V24.6023H23.5455L16.4432 29.3182V25.7386L23.7159 20.9091H27.2386ZM45.0938 50.3977C42.9536 50.3977 41.1307 49.8153 39.625 48.6506C38.1193 47.4763 36.9688 45.7765 36.1733 43.5511C35.3778 41.3163 34.9801 38.6174 34.9801 35.4545C34.9801 32.3106 35.3778 29.6259 36.1733 27.4006C36.9782 25.1657 38.1335 23.4612 39.6392 22.2869C41.1544 21.1032 42.9725 20.5114 45.0938 20.5114C47.215 20.5114 49.0284 21.1032 50.5341 22.2869C52.0492 23.4612 53.2045 25.1657 54 27.4006C54.8049 29.6259 55.2074 32.3106 55.2074 35.4545C55.2074 38.6174 54.8097 41.3163 54.0142 43.5511C53.2188 45.7765 52.0682 47.4763 50.5625 48.6506C49.0568 49.8153 47.2339 50.3977 45.0938 50.3977ZM45.0938 47.2727C47.215 47.2727 48.8627 46.25 50.0369 44.2045C51.2112 42.1591 51.7983 39.2424 51.7983 35.4545C51.7983 32.9356 51.5284 30.7907 50.9886 29.0199C50.4583 27.2491 49.6913 25.8996 48.6875 24.9716C47.6932 24.0436 46.4953 23.5795 45.0938 23.5795C42.9915 23.5795 41.3485 24.6165 40.1648 26.6903C38.9811 28.7547 38.3892 31.6761 38.3892 35.4545C38.3892 37.9735 38.6544 40.1136 39.1847 41.875C39.715 43.6364 40.4773 44.9763 41.4716 45.8949C42.4754 46.8134 43.6828 47.2727 45.0938 47.2727Z" fill="black"/>
</svg>
