<svg width="69" height="67" viewBox="0 0 69 67" fill="none" xmlns="http://www.w3.org/2000/svg">
<path d="M67 33.5C67 50.8419 52.5051 65 34.5 65C16.4949 65 2 50.8419 2 33.5C2 16.1581 16.4949 2 34.5 2C52.5051 2 67 16.1581 67 33.5Z" fill="#D61CFF" stroke="#8AE3A6" stroke-width="4"/>
<path d="M24.6136 54V50.9318L36.1364 38.3182C37.4886 36.8409 38.6023 35.5568 39.4773 34.4659C40.3523 33.3636 41 32.3295 41.4205 31.3636C41.8523 30.3864 42.0682 29.3636 42.0682 28.2955C42.0682 27.0682 41.7727 26.0057 41.1818 25.108C40.6023 24.2102 39.8068 23.517 38.7955 23.0284C37.7841 22.5398 36.6477 22.2955 35.3864 22.2955C34.0455 22.2955 32.875 22.5739 31.875 23.1307C30.8864 23.6761 30.1193 24.4432 29.5739 25.4318C29.0398 26.4205 28.7727 27.5795 28.7727 28.9091H24.75C24.75 26.8636 25.2216 25.0682 26.1648 23.5227C27.108 21.9773 28.392 20.7727 30.017 19.9091C31.6534 19.0455 33.4886 18.6136 35.5227 18.6136C37.5682 18.6136 39.3807 19.0455 40.9602 19.9091C42.5398 20.7727 43.7784 21.9375 44.6761 23.4034C45.5739 24.8693 46.0227 26.5 46.0227 28.2955C46.0227 29.5795 45.7898 30.8352 45.3239 32.0625C44.8693 33.2784 44.0739 34.6364 42.9375 36.1364C41.8125 37.625 40.25 39.4432 38.25 41.5909L30.4091 49.9773V50.25H46.6364V54H24.6136Z" fill="black"/>
</svg>
