<svg width="69" height="67" viewBox="0 0 69 67" fill="none" xmlns="http://www.w3.org/2000/svg">
<path d="M67 33.5C67 50.8419 52.5051 65 34.5 65C16.4949 65 2 50.8419 2 33.5C2 16.1581 16.4949 2 34.5 2C52.5051 2 67 16.1581 67 33.5Z" fill="#D61CFF" stroke="#8AE3A6" stroke-width="4"/>
<path d="M35.4091 53.4773C33.1591 53.4773 31.1534 53.0909 29.392 52.3182C27.642 51.5455 26.25 50.4716 25.2159 49.0966C24.1932 47.7102 23.6364 46.1023 23.5455 44.2727H27.8409C27.9318 45.3977 28.3182 46.3693 29 47.1875C29.6818 47.9943 30.5739 48.6193 31.6761 49.0625C32.7784 49.5057 34 49.7273 35.3409 49.7273C36.8409 49.7273 38.1705 49.4659 39.3295 48.9432C40.4886 48.4205 41.3977 47.6932 42.0568 46.7614C42.7159 45.8295 43.0455 44.75 43.0455 43.5227C43.0455 42.2386 42.7273 41.108 42.0909 40.1307C41.4545 39.142 40.5227 38.3693 39.2955 37.8125C38.0682 37.2557 36.5682 36.9773 34.7955 36.9773H32V33.2273H34.7955C36.1818 33.2273 37.3977 32.9773 38.4432 32.4773C39.5 31.9773 40.3239 31.2727 40.9148 30.3636C41.517 29.4545 41.8182 28.3864 41.8182 27.1591C41.8182 25.9773 41.5568 24.9489 41.0341 24.0739C40.5114 23.1989 39.7727 22.517 38.8182 22.0284C37.875 21.5398 36.7614 21.2955 35.4773 21.2955C34.2727 21.2955 33.1364 21.517 32.0682 21.9602C31.0114 22.392 30.1477 23.0227 29.4773 23.8523C28.8068 24.6705 28.4432 25.6591 28.3864 26.8182H24.2955C24.3636 24.9886 24.9148 23.3864 25.9489 22.0114C26.983 20.625 28.3352 19.5455 30.0057 18.7727C31.6875 18 33.5341 17.6136 35.5455 17.6136C37.7045 17.6136 39.5568 18.0511 41.1023 18.9261C42.6477 19.7898 43.8352 20.9318 44.6648 22.3523C45.4943 23.7727 45.9091 25.3068 45.9091 26.9545C45.9091 28.9205 45.392 30.5966 44.358 31.983C43.3352 33.3693 41.9432 34.3295 40.1818 34.8636V35.1364C42.3864 35.5 44.108 36.4375 45.3466 37.9489C46.5852 39.4489 47.2045 41.3068 47.2045 43.5227C47.2045 45.4205 46.6875 47.125 45.6534 48.6364C44.6307 50.1364 43.233 51.3182 41.4602 52.1818C39.6875 53.0455 37.6705 53.4773 35.4091 53.4773Z" fill="black"/>
</svg>
