<svg width="69" height="67" viewBox="0 0 69 67" fill="none" xmlns="http://www.w3.org/2000/svg">
<path d="M67 33.5C67 50.8419 52.5051 65 34.5 65C16.4949 65 2 50.8419 2 33.5C2 16.1581 16.4949 2 34.5 2C52.5051 2 67 16.1581 67 33.5Z" fill="#D61CFF" stroke="#8AE3A6" stroke-width="4"/>
<path d="M32.5227 50.4773C30.5227 50.4773 28.7216 50.0795 27.1193 49.2841C25.517 48.4886 24.233 47.3977 23.267 46.0114C22.3011 44.625 21.7727 43.0455 21.6818 41.2727H25.7727C25.9318 42.8523 26.6477 44.1591 27.9205 45.1932C29.2045 46.2159 30.7386 46.7273 32.5227 46.7273C33.9545 46.7273 35.2273 46.392 36.3409 45.7216C37.4659 45.0511 38.3466 44.1307 38.983 42.9602C39.6307 41.7784 39.9545 40.4432 39.9545 38.9545C39.9545 37.4318 39.6193 36.0739 38.9489 34.8807C38.2898 33.6761 37.3807 32.7273 36.2216 32.0341C35.0625 31.3409 33.7386 30.9886 32.25 30.9773C31.1818 30.9659 30.0852 31.1307 28.9602 31.4716C27.8352 31.8011 26.9091 32.2273 26.1818 32.75L22.2273 32.2727L24.3409 15.0909H42.4773V18.8409H27.8864L26.6591 29.1364H26.8636C27.5795 28.5682 28.4773 28.0966 29.5568 27.7216C30.6364 27.3466 31.7614 27.1591 32.9318 27.1591C35.0682 27.1591 36.9716 27.6705 38.642 28.6932C40.3239 29.7045 41.642 31.0909 42.5966 32.8523C43.5625 34.6136 44.0455 36.625 44.0455 38.8864C44.0455 41.1136 43.5455 43.1023 42.5455 44.8523C41.5568 46.5909 40.1932 47.9659 38.4545 48.9773C36.7159 49.9773 34.7386 50.4773 32.5227 50.4773Z" fill="black"/>
</svg>
