<svg width="69" height="67" viewBox="0 0 69 67" fill="none" xmlns="http://www.w3.org/2000/svg">
<path d="M67 33.5C67 50.8419 52.5051 65 34.5 65C16.4949 65 2 50.8419 2 33.5C2 16.1581 16.4949 2 34.5 2C52.5051 2 67 16.1581 67 33.5Z" fill="#D61CFF" stroke="#8AE3A6" stroke-width="4"/>
<path d="M37.2045 53.4773C35.7727 53.4545 34.3409 53.1818 32.9091 52.6591C31.4773 52.1364 30.1705 51.2557 28.9886 50.017C27.8068 48.767 26.858 47.0795 26.142 44.9545C25.4261 42.8182 25.0682 40.1364 25.0682 36.9091C25.0682 33.8182 25.358 31.0795 25.9375 28.6932C26.517 26.2955 27.358 24.2784 28.4602 22.642C29.5625 20.9943 30.892 19.7443 32.4489 18.892C34.017 18.0398 35.7841 17.6136 37.75 17.6136C39.7045 17.6136 41.4432 18.0057 42.9659 18.7898C44.5 19.5625 45.75 20.642 46.7159 22.0284C47.6818 23.4148 48.3068 25.0114 48.5909 26.8182H44.4318C44.0455 25.25 43.2955 23.9489 42.1818 22.9148C41.0682 21.8807 39.5909 21.3636 37.75 21.3636C35.0455 21.3636 32.9148 22.5398 31.358 24.892C29.8125 27.2443 29.0341 30.5455 29.0227 34.7955H29.2955C29.9318 33.8295 30.6875 33.0057 31.5625 32.3239C32.4489 31.6307 33.4261 31.0966 34.4943 30.7216C35.5625 30.3466 36.6932 30.1591 37.8864 30.1591C39.8864 30.1591 41.7159 30.6591 43.375 31.6591C45.0341 32.6477 46.3636 34.017 47.3636 35.767C48.3636 37.5057 48.8636 39.5 48.8636 41.75C48.8636 43.9091 48.3807 45.8864 47.4148 47.6818C46.4489 49.4659 45.0909 50.8864 43.3409 51.9432C41.6023 52.9886 39.5568 53.5 37.2045 53.4773ZM37.2045 49.7273C38.6364 49.7273 39.9205 49.3693 41.0568 48.6534C42.2045 47.9375 43.108 46.9773 43.767 45.7727C44.4375 44.5682 44.7727 43.2273 44.7727 41.75C44.7727 40.3068 44.4489 38.9943 43.8011 37.8125C43.1648 36.6193 42.2841 35.6705 41.1591 34.9659C40.0455 34.2614 38.7727 33.9091 37.3409 33.9091C36.2614 33.9091 35.2557 34.125 34.3239 34.5568C33.392 34.9773 32.5739 35.5568 31.8693 36.2955C31.1761 37.0341 30.6307 37.8807 30.233 38.8352C29.8352 39.7784 29.6364 40.7727 29.6364 41.8182C29.6364 43.2045 29.9602 44.5 30.608 45.7045C31.267 46.9091 32.1648 47.8807 33.3011 48.6193C34.4489 49.358 35.75 49.7273 37.2045 49.7273Z" fill="black"/>
</svg>
