<svg width="69" height="67" viewBox="0 0 69 67" fill="none" xmlns="http://www.w3.org/2000/svg">
<path d="M67 33.5C67 50.8419 52.5051 65 34.5 65C16.4949 65 2 50.8419 2 33.5C2 16.1581 16.4949 2 34.5 2C52.5051 2 67 16.1581 67 33.5Z" fill="#D61CFF" stroke="#8AE3A6" stroke-width="4"/>
<path d="M36.7955 53.4773C34.4545 53.4773 32.3864 53.0625 30.5909 52.233C28.8068 51.392 27.4148 50.2386 26.4148 48.7727C25.4148 47.2955 24.9205 45.6136 24.9318 43.7273C24.9205 42.25 25.2102 40.8864 25.8011 39.6364C26.392 38.375 27.1989 37.3239 28.2216 36.483C29.2557 35.6307 30.4091 35.0909 31.6818 34.8636V34.6591C30.0114 34.2273 28.6818 33.2898 27.6932 31.8466C26.7045 30.392 26.2159 28.7386 26.2273 26.8864C26.2159 25.1136 26.6648 23.5284 27.5739 22.1307C28.483 20.733 29.733 19.6307 31.3239 18.8239C32.9261 18.017 34.75 17.6136 36.7955 17.6136C38.8182 17.6136 40.625 18.017 42.2159 18.8239C43.8068 19.6307 45.0568 20.733 45.9659 22.1307C46.8864 23.5284 47.3523 25.1136 47.3636 26.8864C47.3523 28.7386 46.8466 30.392 45.8466 31.8466C44.858 33.2898 43.5455 34.2273 41.9091 34.6591V34.8636C43.1705 35.0909 44.3068 35.6307 45.3182 36.483C46.3295 37.3239 47.1364 38.375 47.7386 39.6364C48.3409 40.8864 48.6477 42.25 48.6591 43.7273C48.6477 45.6136 48.1364 47.2955 47.125 48.7727C46.125 50.2386 44.733 51.392 42.9489 52.233C41.1761 53.0625 39.125 53.4773 36.7955 53.4773ZM36.7955 49.7273C38.375 49.7273 39.7386 49.4716 40.8864 48.9602C42.0341 48.4489 42.9205 47.7273 43.5455 46.7955C44.1705 45.8636 44.4886 44.7727 44.5 43.5227C44.4886 42.2045 44.1477 41.0398 43.4773 40.0284C42.8068 39.017 41.892 38.2216 40.733 37.642C39.5852 37.0625 38.2727 36.7727 36.7955 36.7727C35.3068 36.7727 33.9773 37.0625 32.8068 37.642C31.6477 38.2216 30.733 39.017 30.0625 40.0284C29.4034 41.0398 29.0795 42.2045 29.0909 43.5227C29.0795 44.7727 29.3807 45.8636 29.9943 46.7955C30.6193 47.7273 31.5114 48.4489 32.6705 48.9602C33.8295 49.4716 35.2045 49.7273 36.7955 49.7273ZM36.7955 33.1591C38.0455 33.1591 39.1534 32.9091 40.1193 32.4091C41.0966 31.9091 41.8636 31.2102 42.4205 30.3125C42.9773 29.4148 43.2614 28.3636 43.2727 27.1591C43.2614 25.9773 42.983 24.9489 42.4375 24.0739C41.892 23.1875 41.1364 22.5057 40.1705 22.0284C39.2045 21.5398 38.0795 21.2955 36.7955 21.2955C35.4886 21.2955 34.3466 21.5398 33.3693 22.0284C32.392 22.5057 31.6364 23.1875 31.1023 24.0739C30.5682 24.9489 30.3068 25.9773 30.3182 27.1591C30.3068 28.3636 30.5739 29.4148 31.1193 30.3125C31.6761 31.2102 32.4432 31.9091 33.4205 32.4091C34.3977 32.9091 35.5227 33.1591 36.7955 33.1591Z" fill="black"/>
</svg>
