<svg width="69" height="67" viewBox="0 0 69 67" fill="none" xmlns="http://www.w3.org/2000/svg">
<path d="M67 33.5C67 50.8419 52.5051 65 34.5 65C16.4949 65 2 50.8419 2 33.5C2 16.1581 16.4949 2 34.5 2C52.5051 2 67 16.1581 67 33.5Z" fill="#D61CFF" stroke="#8AE3A6" stroke-width="4"/>
<path d="M36.7273 17.6136C38.1591 17.625 39.5909 17.8977 41.0227 18.4318C42.4545 18.9659 43.7614 19.8523 44.9432 21.0909C46.125 22.3182 47.0739 23.9943 47.7898 26.1193C48.5057 28.2443 48.8636 30.9091 48.8636 34.1136C48.8636 37.2159 48.5682 39.9716 47.9773 42.3807C47.3977 44.7784 46.5568 46.8011 45.4545 48.4489C44.3636 50.0966 43.0341 51.3466 41.4659 52.1989C39.9091 53.0511 38.1477 53.4773 36.1818 53.4773C34.2273 53.4773 32.483 53.0909 30.9489 52.3182C29.4261 51.5341 28.1761 50.4489 27.1989 49.0625C26.233 47.6648 25.6136 46.0455 25.3409 44.2045H29.5C29.875 45.8068 30.6193 47.1307 31.733 48.1761C32.858 49.2102 34.3409 49.7273 36.1818 49.7273C38.875 49.7273 41 48.5511 42.5568 46.1989C44.125 43.8466 44.9091 40.5227 44.9091 36.2273H44.6364C44 37.1818 43.2443 38.0057 42.3693 38.6989C41.4943 39.392 40.5227 39.9261 39.4545 40.3011C38.3864 40.6761 37.25 40.8636 36.0455 40.8636C34.0455 40.8636 32.2102 40.3693 30.5398 39.3807C28.8807 38.3807 27.5511 37.0114 26.5511 35.2727C25.5625 33.5227 25.0682 31.5227 25.0682 29.2727C25.0682 27.1364 25.5455 25.1818 26.5 23.4091C27.4659 21.625 28.8182 20.2045 30.5568 19.1477C32.3068 18.0909 34.3636 17.5795 36.7273 17.6136ZM36.7273 21.3636C35.2955 21.3636 34.0057 21.7216 32.858 22.4375C31.7216 23.142 30.8182 24.0966 30.1477 25.3011C29.4886 26.4943 29.1591 27.8182 29.1591 29.2727C29.1591 30.7273 29.4773 32.0511 30.1136 33.2443C30.7614 34.4261 31.642 35.3693 32.7557 36.0739C33.8807 36.767 35.1591 37.1136 36.5909 37.1136C37.6705 37.1136 38.6761 36.9034 39.608 36.483C40.5398 36.0511 41.3523 35.4659 42.0455 34.7273C42.75 33.9773 43.3011 33.1307 43.6989 32.1875C44.0966 31.233 44.2955 30.2386 44.2955 29.2045C44.2955 27.8409 43.9659 26.5625 43.3068 25.3693C42.6591 24.1761 41.7614 23.2102 40.6136 22.4716C39.4773 21.733 38.1818 21.3636 36.7273 21.3636Z" fill="black"/>
</svg>
